<?xml version="1.0" encoding="UTF-8"?>
<svg id="Art" xmlns="http://www.w3.org/2000/svg" viewBox="0 0 147.04 154.26">
  <defs>
    <style>
      .cls-1 {
        fill: #fff;
        stroke-width: 0px;
      }
    </style>
  </defs>
  <polygon class="cls-1" points="12.94 92.49 23.64 122.34 16.91 125.44 4.49 97.14 12.94 92.49"/>
  <polygon class="cls-1" points="32.78 124.41 23.64 137.52 37.27 146.49 43.14 129.06 32.78 124.41"/>
  <polygon class="cls-1" points="49.87 135.45 74.71 154.26 75.75 139.59 49.87 135.45"/>
  <polygon class="cls-1" points="82.13 139.76 85.58 154.26 95.25 151.15 88.69 139.76 82.13 139.76"/>
  <polygon class="cls-1" points="6.38 84.38 12.94 84.38 12.94 75.92 2.76 77.13 6.38 84.38"/>
  <polygon class="cls-1" points="5.52 70.4 16.22 66.26 18.98 57.29 12.94 45.9 0 56.77 5.52 70.4"/>
  <polygon class="cls-1" points="17.72 32.86 18.76 44.77 31.1 32.86 24.41 25.96 17.72 32.86"/>
  <polygon class="cls-1" points="28.6 16.37 35.67 26.38 44.64 19.3 33.43 12.23 28.6 16.37"/>
  <polygon class="cls-1" points="46.93 14.29 68.16 10.32 67.12 2.73 51.76 5.32 46.93 14.29"/>
  <polygon class="cls-1" points="74.71 5.35 79.03 13.8 88.69 11.91 83.69 0 74.71 5.35"/>
  <polygon class="cls-1" points="92.97 4.65 93.8 12.57 107.01 13.8 111.73 4.1 92.97 4.65"/>
  <polygon class="cls-1" points="112.57 13.8 128.69 37.18 135.92 31.48 123.13 11.13 112.57 13.8"/>
  <polygon class="cls-1" points="98.25 139.76 99.64 147.96 118.82 145.73 111.73 128.22 98.25 139.76"/>
  <polygon class="cls-1" points="122.16 114.04 117.71 130.3 134.95 118.63 122.16 114.04"/>
  <polygon class="cls-1" points="124.24 102.37 129.8 111.26 136.75 110.01 147.04 88.88 133.56 82.63 124.24 102.37"/>
  <polygon class="cls-1" points="135.92 77.21 146.06 76.24 144.95 63.59 130.36 63.59 135.92 77.21"/>
  <polygon class="cls-1" points="138.84 39.96 128 39.96 134.39 58.15 138.21 54 138.84 39.96"/>
</svg>