<?xml version="1.0" encoding="UTF-8"?>
<svg id="Art" xmlns="http://www.w3.org/2000/svg" viewBox="0 0 109.62 183.51">
  <defs>
    <style>
      .cls-1 {
        fill: #3f4a25;
        stroke-width: 0px;
      }
    </style>
  </defs>
  <polygon class="cls-1" points="17.53 0 0 170.28 4.29 170.28 21.11 53.3 25.4 0 17.53 0"/>
  <polygon class="cls-1" points="41.73 2.15 49.24 2.15 25.99 179.58 16.33 179.58 32.78 85.14 41.73 2.15"/>
  <polygon class="cls-1" points="61.4 5.01 57.47 56.16 42.09 144.52 44.95 179.58 51.74 179.58 54.25 102.67 71.42 7.87 61.4 5.01"/>
  <polygon class="cls-1" points="88.52 2.15 62.4 157.4 62.4 183.51 65.98 183.51 92.45 5.01 88.52 2.15"/>
  <polygon class="cls-1" points="109.62 11.8 100.68 16.81 94.6 109.46 80.29 172.07 90.66 172.07 102.83 104.46 109.62 11.8"/>
</svg>