<?xml version="1.0" encoding="UTF-8"?>
<svg id="Art" xmlns="http://www.w3.org/2000/svg" viewBox="0 0 123.09 135.48">
  <defs>
    <style>
      .cls-1 {
        fill: #bd94c4;
        stroke-width: 0px;
      }
    </style>
  </defs>
  <polygon class="cls-1" points="68.36 0 68.36 25.76 90.65 23.78 109.07 40.12 103.03 50.77 73.56 45.32 50.28 27.24 10.4 44.09 15.11 66.87 0 81.98 10.65 110.21 51.02 117.15 63.9 135.48 90.9 118.39 92.63 102.81 118.56 98.57 123.09 76.28 116.16 73.06 109.07 87.18 85.69 86.69 68.85 111.74 56.96 95.6 30.96 102.81 19.07 86.19 31.95 69.1 29.72 58.45 49.78 49.29 79.26 67.74 87.43 59.19 109.07 65.39 121.36 35.07 92.13 6.93 79.26 10.89 68.36 0"/>
</svg>