<?xml version="1.0" encoding="UTF-8"?>
<svg id="Art" xmlns="http://www.w3.org/2000/svg" viewBox="0 0 135.95 133.66">
  <defs>
    <style>
      .cls-1 {
        fill: #bd94c4;
        stroke-width: 0px;
      }
    </style>
  </defs>
  <polygon class="cls-1" points="22.11 33.29 28.46 44.47 63.27 11.18 54.38 3.56 31.26 20.05 22.11 33.29"/>
  <polygon class="cls-1" points="37.1 56.16 42.69 61.24 59.97 47.01 51.58 39.89 37.1 56.16"/>
  <polygon class="cls-1" points="0 98.09 5.08 104.44 26.17 90.97 33.54 71.91 23.89 66.58 1.78 83.86 0 98.09"/>
  <polygon class="cls-1" points="35.32 129.34 51.58 120.45 48.53 111.3 35.32 117.91 35.32 129.34"/>
  <polygon class="cls-1" points="56.16 75.22 63.27 82.08 84.36 73.44 89.19 57.94 78.52 53.36 59.97 63.53 56.16 75.22"/>
  <polygon class="cls-1" points="75.72 36.08 81.57 39.89 99.1 29.73 93.51 19.57 80.55 26.17 75.72 36.08"/>
  <polygon class="cls-1" points="77.25 13.72 87.41 13.72 93.26 1.52 81.82 1.52 77.25 13.72"/>
  <polygon class="cls-1" points="114.6 12.2 125.02 15.5 135.95 6.35 130.1 0 117.91 1.52 114.6 12.2"/>
  <polygon class="cls-1" points="108.5 66.58 123.75 55.4 121.21 47.01 112.06 47.01 99.1 63.02 108.5 66.58"/>
  <polygon class="cls-1" points="89.19 87.16 78.52 94.53 78.52 101.64 87.41 101.64 99.1 88.68 89.19 87.16"/>
  <polygon class="cls-1" points="111.43 116.89 101.39 125.53 101.39 133.66 114.6 125.27 111.43 116.89"/>
</svg>