<?xml version="1.0" encoding="UTF-8"?>
<svg id="Art" xmlns="http://www.w3.org/2000/svg" viewBox="0 0 128.42 132.36">
  <defs>
    <style>
      .cls-1 {
        fill: #bd94c4;
        stroke-width: 0px;
      }
    </style>
  </defs>
  <polygon class="cls-1" points="51.51 0 44 15.38 65.82 12.88 51.51 0"/>
  <polygon class="cls-1" points="81.2 12.88 75.84 28.26 93.37 40.78 113.4 24.68 110.9 10.02 81.2 12.88"/>
  <polygon class="cls-1" points="36.13 27.54 33.98 46.15 59.2 51.15 61.89 28.98 36.13 27.54"/>
  <polygon class="cls-1" points="17.17 39.35 5.01 27.54 11.09 15.38 29.69 12.88 17.17 39.35"/>
  <polygon class="cls-1" points="20.75 51.15 0 67.97 10.37 80.85 29.69 74.41 20.75 51.15"/>
  <polygon class="cls-1" points="46.15 66 40.78 89.43 59.2 89.43 46.15 66"/>
  <polygon class="cls-1" points="71.9 53.66 67.61 69.04 86.57 69.04 86.57 53.66 71.9 53.66"/>
  <polygon class="cls-1" points="104.1 61.35 120.2 64.03 128.42 44.36 117.69 40.78 104.1 61.35"/>
  <polygon class="cls-1" points="97.66 74.05 80.13 93.01 86.57 110.9 113.4 106.24 117.69 80.85 97.66 74.05"/>
  <polygon class="cls-1" points="65.82 102.67 36.49 110.9 36.49 132.36 67.61 113.4 65.82 102.67"/>
  <polygon class="cls-1" points="26.47 89.43 26.47 105.89 11.45 107.68 11.45 94.44 26.47 89.43"/>
</svg>